<svg id="Layer_1" height="512" viewBox="0 0 128 128" width="512" xmlns="http://www.w3.org/2000/svg" data-name="Layer 1"><g fill="#47568b"><path d="m91.287 13.176h-6.25a1.75 1.75 0 0 0 0 3.5h6.25a1.75 1.75 0 0 0 0-3.5z"/><path d="m91.287 19.546h-6.25a1.75 1.75 0 0 0 0 3.5h6.25a1.75 1.75 0 0 0 0-3.5z"/><path d="m91.287 25.917h-6.25a1.75 1.75 0 0 0 0 3.5h6.25a1.75 1.75 0 0 0 0-3.5z"/><path d="m91.287 32.287h-6.25a1.75 1.75 0 0 0 0 3.5h6.25a1.75 1.75 0 0 0 0-3.5z"/><path d="m91.287 38.657h-6.25a1.75 1.75 0 0 0 0 3.5h6.25a1.75 1.75 0 1 0 0-3.5z"/><path d="m100.046 16.676h6.25a1.75 1.75 0 0 0 0-3.5h-6.25a1.75 1.75 0 1 0 0 3.5z"/><path d="m106.3 19.546h-6.25a1.75 1.75 0 1 0 0 3.5h6.25a1.75 1.75 0 0 0 0-3.5z"/><path d="m106.3 25.917h-6.25a1.75 1.75 0 1 0 0 3.5h6.25a1.75 1.75 0 0 0 0-3.5z"/><path d="m106.3 32.287h-6.25a1.75 1.75 0 1 0 0 3.5h6.25a1.75 1.75 0 0 0 0-3.5z"/><path d="m106.3 38.657h-6.25a1.75 1.75 0 1 0 0 3.5h6.25a1.75 1.75 0 0 0 0-3.5z"/></g><path d="m31.179 11c-9.136 0-15.273 2-18.523 3.448a2.819 2.819 0 0 0 -1.263 4.011l12.407 21.034h14.756l12.409-21.034a2.819 2.819 0 0 0 -1.265-4.011c-3.248-1.448-9.386-3.448-18.521-3.448z" fill="#61729a"/><path d="m49.7 14.448c-3.248-1.448-9.386-3.448-18.521-3.448s-15.273 2-18.523 3.448c21.987-8.217 19.982 25.029 19.981 25.045h5.919l12.409-21.034a2.819 2.819 0 0 0 -1.265-4.011z" fill="#47568b"/><path d="m27.97 41.243a1.75 1.75 0 0 1 -1.75-1.75v-15.459a1.75 1.75 0 1 1 3.5 0v15.459a1.75 1.75 0 0 1 -1.75 1.75z" fill="#47568b"/><path d="m34.387 41.243a1.75 1.75 0 0 1 -1.75-1.75v-9.834a1.75 1.75 0 1 1 3.5 0v9.834a1.75 1.75 0 0 1 -1.75 1.75z" fill="#61729a"/><path d="m31.179 117a4.5 4.5 0 0 1 -4.5-4.321l-2.879-73.186h14.756l-2.883 73.186a4.5 4.5 0 0 1 -4.494 4.321z" fill="#9bdc05"/><path d="m37.768 59.506.365-9.268h-13.909l.365 9.268z" fill="#badbff"/><path d="m51.042 64.747h24.014v13.875h-24.014z" fill="#f95e96"/><path d="m47.737 78.621h30.625v38.361h-30.625z" fill="#61729a"/><path d="m51.042 57.143h24.014v7.604h-24.014z" fill="#61729a"/><path d="m71.442 57.143h-16.785v-30.79l16.785 15.42z" fill="#f95e96"/><rect fill="#61729a" height="33.333" rx="4.38" width="8.759" x="91.287" y="11"/><path d="m85.38 87.26h20.574v29.74h-20.574z" fill="#ffb54c"/><path d="m28.219 115.87a4.472 4.472 0 0 0 1.535-3.192l2.883-73.186h-8.837l2.883 73.186a4.472 4.472 0 0 0 1.536 3.192z" fill="#c2e921"/><path d="m32.214 50.238h-7.99l.255 6.469.11 2.799h7.26z" fill="#dff3ff"/><path d="m66.664 78.621h11.698v38.361h-11.698z" fill="#47568b"/><path d="m63.997 64.747h11.059v13.875h-11.059z" fill="#d84f87"/><path d="m63.997 57.143h11.059v7.604h-11.059z" fill="#47568b"/><path d="m66.9 37.6c-.927-2.311-1.844-4.229-1.844-4.229l-10.4-5.708a32.432 32.432 0 0 0 8.392 14.266v15.21h8.393v-15.366z" fill="#d84f87"/><ellipse cx="63.049" cy="34.129" fill="#f95e96" rx="3.341" ry="11.489" transform="matrix(.707 -.707 .707 .707 -5.666 54.579)"/><path d="m97.417 87.26h8.537v29.74h-8.537z" fill="#ff8f00"/><path d="m117 115.232h-.344a1.75 1.75 0 0 0 0 3.5h.344a1.75 1.75 0 0 0 0-3.5z"/><path d="m110.875 115.232h-3.168v-27.971a1.75 1.75 0 0 0 -1.75-1.75h-8.538v-34.718a1.75 1.75 0 1 0 -3.5 0v34.718h-8.536a1.75 1.75 0 0 0 -1.75 1.75v23.406a1.75 1.75 0 0 0 3.5 0v-21.656h17.074v26.222h-24.092v-36.612a1.75 1.75 0 0 0 -1.75-1.75h-1.556v-19.728a1.75 1.75 0 0 0 -1.75-1.75h-18.649v-21.107a41.267 41.267 0 0 0 3.043 3.443c.759.759 6.252 6.115 10.242 6.571v5.492a1.75 1.75 0 0 0 3.5 0v-7.35a1.746 1.746 0 0 0 -.03-.3c.975-3.962-5.661-10.763-6.513-11.614a32.116 32.116 0 0 0 -6.831-5.349c-2.8-1.539-4.864-1.68-6.13-.412a2.859 2.859 0 0 0 -.38.482 1.731 1.731 0 0 0 -.381.906 4.107 4.107 0 0 0 -.02 1.606v27.63h-1.865a1.75 1.75 0 0 0 -1.75 1.75v14.526a1.75 1.75 0 0 0 3.5 0v-5.167h20.514v10.371h-25.569a1.75 1.75 0 0 0 -1.75 1.75v36.611h-9.19a6.251 6.251 0 0 0 .623-2.484l2.867-72.748 12.185-20.651a4.569 4.569 0 0 0 -2.059-6.5c-3.684-1.642-10.011-3.6-19.235-3.6q-1.159 0-2.256.04a1.75 1.75 0 0 0 -1.686 1.811 1.73 1.73 0 0 0 1.812 1.687q1.036-.037 2.131-.038c8.608 0 14.437 1.792 17.81 3.3a1.033 1.033 0 0 1 .57.639 1.075 1.075 0 0 1 -.1.885l-11.902 20.17h-1.42v-8.084a1.75 1.75 0 0 0 -3.5 0v8.084h-2.917v-13.709a1.75 1.75 0 0 0 -3.5 0v13.709h-1.423l-11.9-20.174a1.075 1.075 0 0 1 -.1-.885 1.034 1.034 0 0 1 .569-.639c.827-.369 1.722-.717 2.662-1.035a1.75 1.75 0 1 0 -1.12-3.31c-1.042.353-2.039.74-2.965 1.152a4.569 4.569 0 0 0 -2.058 6.5l12.185 20.648 2.865 72.746a6.251 6.251 0 0 0 .623 2.484h-14.561a1.75 1.75 0 0 0 0 3.5h19.822c.12.007.238.018.36.018s.24-.011.36-.018h74.24a.875.875 0 0 0 .349 0h4.744a1.75 1.75 0 0 0 0-3.5zm-46.698-82.232c3.508 3.509 5.166 6.461 5.519 7.769-1.308-.353-4.26-2.01-7.769-5.518s-5.163-6.451-5.517-7.763c1.308.352 4.259 2.012 7.767 5.512zm-11.377 25.893h20.509v4.107h-20.509zm-3.31 21.478h27.125v34.861h-27.125zm-12.751-39.128-.285 7.245h-10.545l-.285-7.245zm-8.3 71.366-2.027-51.353h4.769a1.75 1.75 0 0 0 0-3.5h-4.907l-.227-5.768h10.269l-2.387 60.621a2.733 2.733 0 0 1 -2.566 2.623h-.363a2.733 2.733 0 0 1 -2.565-2.623z"/><path d="m22 13.486a1.739 1.739 0 0 0 .291-.024l.6-.1a1.75 1.75 0 1 0 -.549-3.457l-.634.1a1.75 1.75 0 0 0 .292 3.481z"/><path d="m85.04 38.657a1.75 1.75 0 0 0 0 3.5h4.917a6.12 6.12 0 0 0 11.426 0h4.917a1.75 1.75 0 0 0 0-3.5h-4.5v-2.87h4.5a1.75 1.75 0 0 0 0-3.5h-4.5v-2.87h4.5a1.75 1.75 0 0 0 0-3.5h-4.5v-2.871h4.5a1.75 1.75 0 0 0 0-3.5h-4.5v-2.87h4.5a1.75 1.75 0 0 0 0-3.5h-4.917a6.12 6.12 0 0 0 -11.426 0h-4.917a1.75 1.75 0 0 0 0 3.5h4.5v2.87h-4.5a1.75 1.75 0 0 0 0 3.5h4.5v2.871h-4.5a1.75 1.75 0 0 0 0 3.5h4.5v2.87h-4.5a1.75 1.75 0 0 0 0 3.5h4.5v2.87zm10.629-25.907a2.633 2.633 0 0 1 2.631 2.63v24.574a2.629 2.629 0 0 1 -5.259 0v-24.574a2.633 2.633 0 0 1 2.628-2.63z"/></svg>