<svg height="512pt" viewBox="0 -27 512 512" width="512pt" xmlns="http://www.w3.org/2000/svg"><path d="m374.65625 118.941406c-45.039062-45.039062-104.921875-69.84375-168.613281-69.84375h-20.78125v30h20.78125c114.941406 0 208.457031 93.515625 208.457031 208.460938v36.070312h30c0-14.023437 0-22.949218 0-36.070312 0-63.695313-24.804688-123.578125-69.84375-168.617188zm0 0" fill="#4c5659"/><path d="m504.5 374.683594c0 41.421875-33.578125 75-75 75s-75-33.578125-75-75 33.578125-75 75-75 75 33.578125 75 75zm0 0" fill="#e8b5b1"/><path d="m414.5 374.683594c0-30.753906 18.515625-57.167969 45-68.742188-9.1875-4.015625-19.332031-6.257812-30-6.257812-41.421875 0-75 33.578125-75 75s33.578125 75 75 75c10.671875 0 20.8125-2.242188 30-6.257813-26.484375-11.578125-45-37.992187-45-68.742187zm0 0" fill="#d6948c"/><path d="m156.6875 152.683594h-17.726562c-70.882813 0-131.460938 56.585937-131.460938 130.945312l60.832031 14.746094c-.539062-5.335938-.832031-10.628906-.832031-15.863281 0-60.5 37.710938-109.9375 89.1875-129.828125zm0 0" fill="#7ce3ff"/><path d="m337.5 283.628906v-.003906c0-74.449219-60.609375-130.941406-131.457031-130.941406h-49.355469c-51.476562 19.890625-89.1875 69.328125-89.1875 129.828125 0 5.234375.292969 10.527343.832031 15.863281l104.167969 25.253906zm0 0" fill="#b9f0ff"/><path d="m191.042969 32.683594h-37.082031c-8.285157 0-15 6.714844-15 15v45h67.082031v-45c0-8.285156-6.714844-15-15-15zm0 0" fill="#fce3a0"/><path d="m67.515625 283.628906c.34375 45.878906 21.9375 96.039063 51.675781 143.023438 6.117188 9.660156 14.410156 17.484375 24.007813 23.03125h89.464843c22.578126 0 43.648438-11.511719 55.707032-30.597656 24.726562-39.140626 49.125-89.207032 49.128906-135.457032zm0 0" fill="#fce3a0"/><path d="m119.191406 426.652344c-29.738281-46.984375-51.332031-97.144532-51.675781-143.023438h-60.015625c0 43.421875 20.414062 90.992188 48.605469 135.53125 12.058593 19.050782 33.113281 30.523438 55.660156 30.523438h31.433594c-9.597657-5.546875-17.890625-13.371094-24.007813-23.03125zm0 0" fill="#ffce71"/><path d="m207.5 92.683594h-67.238281v62.667968h92.238281v-37.667968c0-13.808594-11.191406-25-25-25zm0 0" fill="#ffce71"/><path d="m172.5 92.683594h-35c-13.804688 0-25 11.191406-25 25v37.667968h37.761719v-23.667968c0-16.015625 8.453125-30.84375 22.238281-39zm0 0" fill="#ffb357"/><path d="m452 295.328125v-7.769531c0-133.792969-106.515625-242.347656-239.273438-245.867188-2.628906-9.507812-11.351562-16.507812-21.683593-16.507812h-37.082031c-12.40625 0-22.5 10.089844-22.5 22.5v38.070312c-15.042969 2.839844-26.460938 16.070313-26.460938 31.929688v31.644531c-23.769531 5.921875-45.648438 18.054687-63.589844 35.574219-26.703125 26.078125-41.410156 61.136718-41.410156 98.726562 0 32.25 10.761719 68.921875 31.984375 108.992188 1.9375 3.660156 6.476563 5.058594 10.136719 3.121094s5.058594-6.480469 3.117187-10.140626c-18.402343-34.746093-28.476562-66.484374-30.023437-94.476562h262.285156c4.144531 0 7.5-3.355469 7.5-7.5 0-4.140625-3.355469-7.5-7.5-7.5h-262.265625c3.90625-64.589844 57.902344-115.945312 123.726563-115.945312h67.082031c65.820312 0 119.816406 51.359374 123.722656 115.945312h-22.265625c-4.144531 0-7.5 3.359375-7.5 7.5 0 4.144531 3.355469 7.5 7.5 7.5h22.277344c-2.015625 35.296875-18.046875 76.945312-47.746094 123.953125-10.722656 16.972656-29.179688 27.101563-49.367188 27.101563h-120.898437c-20.167969 0-38.609375-10.105469-49.324219-27.035157-.835937-1.324219-1.667968-2.648437-2.492187-3.980469-2.179688-3.519531-6.804688-4.605468-10.324219-2.429687-3.519531 2.183594-4.609375 6.804687-2.429688 10.328125.851563 1.371094 1.710938 2.742188 2.574219 4.105469 13.480469 21.296875 36.65625 34.011719 61.996094 34.011719h120.898437c25.363282 0 48.5625-12.742188 62.050782-34.089844 33.363281-52.816406 50.285156-99.738282 50.285156-139.460938 0 0 0 0 0-.003906 0-37.617188-14.710938-72.691406-41.425781-98.757812-17.933594-17.503907-39.808594-29.625-63.574219-35.539063v-31.648437c0-14.203126-9.160156-26.296876-21.882812-30.707032 105.207031 6.265625 188.882812 93.832032 188.882812 200.585938v7.769531c-34.585938 9.820313-60 41.664063-60 79.355469 0 45.488281 37.011719 82.5 82.5 82.5s82.5-37.011719 82.5-82.5c0-37.691406-25.414062-69.535156-60-79.355469zm-298.039062-255.144531h37.082031c4.136719 0 7.5 3.363281 7.5 7.5v37.5h-52.082031v-37.5c0-4.136719 3.363281-7.5 7.5-7.5zm71.039062 77.5v28.78125c-6.234375-.84375-12.5625-1.28125-18.957031-1.28125h-67.082031c-6.394532 0-12.722657.4375-18.960938 1.28125v-28.78125c0-9.652344 7.851562-17.5 17.5-17.5h70c9.648438 0 17.5 7.847656 17.5 17.5zm-11.457031-45.941406v-15.011719c124.101562 3.933593 223.457031 105.605469 223.457031 230.828125v4.980468c-2.472656-.226562-4.96875-.355468-7.5-.355468s-5.027344.128906-7.5.355468v-4.980468c0-116.570313-92.839844-211.847656-208.457031-215.816406zm215.957031 370.441406c-37.21875 0-67.5-30.28125-67.5-67.5 0-37.222656 30.28125-67.5 67.5-67.5s67.5 30.277344 67.5 67.5c0 37.21875-30.28125 67.5-67.5 67.5zm0 0"/><path d="m102.738281 42.800781c1.421875 1.417969 3.300781 2.199219 5.300781 2.199219 2.011719 0 3.890626-.78125 5.3125-2.199219 2.917969-2.921875 2.917969-7.679687 0-10.601562l-8.792968-8.789063c-1.417969-1.421875-3.296875-2.199218-5.308594-2.199218-2 0-3.878906.777343-5.300781 2.199218-2.921875 2.917969-2.921875 7.679688 0 10.601563zm0 0"/><path d="m78.039062 15c2.011719 0 3.890626-.78125 5.3125-2.199219 2.917969-2.921875 2.917969-7.679687 0-10.609375-1.421874-1.410156-3.300781-2.191406-5.3125-2.191406-2 0-3.878906.78125-5.300781 2.191406-2.917969 2.929688-2.917969 7.6875 0 10.609375 1.421875 1.417969 3.300781 2.199219 5.300781 2.199219zm0 0"/><path d="m37.5 70.03125h70.179688c4.140624 0 7.5-3.371094 7.5-7.5 0-4.140625-3.359376-7.5-7.5-7.5h-70.179688c-4.140625 0-7.5 3.359375-7.5 7.5 0 4.128906 3.359375 7.5 7.5 7.5zm0 0"/><path d="m7.5 70.03125c4.140625 0 7.5-3.371094 7.5-7.5 0-4.140625-3.359375-7.5-7.5-7.5s-7.5 3.359375-7.5 7.5c0 4.128906 3.359375 7.5 7.5 7.5zm0 0"/><path d="m52.738281 132.25c-1.417969 1.421875-2.199219 3.308594-2.199219 5.308594s.78125 3.890625 2.199219 5.300781c1.410157 1.421875 3.300781 2.199219 5.300781 2.199219 2.011719 0 3.890626-.777344 5.3125-2.199219 2.917969-2.917969 2.917969-7.679687 0-10.609375-1.421874-1.410156-3.300781-2.1875-5.3125-2.1875-2-.003906-3.878906.777344-5.300781 2.1875zm0 0"/><path d="m108.039062 80.058594c-2 0-3.878906.78125-5.300781 2.203125l-28.789062 28.777343c-2.921875 2.929688-2.921875 7.679688 0 10.609376 1.421875 1.421874 3.300781 2.191406 5.3125 2.191406 2 0 3.878906-.78125 5.296875-2.191406l28.792968-28.789063c2.917969-2.921875 2.917969-7.679687 0-10.601563-1.421874-1.417968-3.300781-2.199218-5.3125-2.199218zm0 0"/><path d="m101 227.683594v10c0 4.140625 3.355469 7.5 7.5 7.5s7.5-3.359375 7.5-7.5v-10c0-4.144532-3.355469-7.5-7.5-7.5s-7.5 3.355468-7.5 7.5zm0 0"/><path d="m229 227.683594v10c0 4.140625 3.355469 7.5 7.5 7.5s7.5-3.359375 7.5-7.5v-10c0-4.144532-3.355469-7.5-7.5-7.5s-7.5 3.355468-7.5 7.5zm0 0"/><path d="m182.234375 232.449219c-1.667969 3.480469-5.292969 5.734375-9.234375 5.734375s-7.566406-2.253906-9.234375-5.734375c-1.785156-3.738281-6.265625-5.320313-10-3.535157-3.738281 1.789063-5.316406 6.265626-3.53125 10.003907 4.144531 8.664062 13.078125 14.265625 22.765625 14.265625s18.625-5.601563 22.769531-14.265625c1.785157-3.738281.203125-8.214844-3.535156-10.003907-3.730469-1.785156-8.214844-.203124-10 3.535157zm0 0"/></svg>