<svg height="512" viewBox="0 0 57 60" width="512" xmlns="http://www.w3.org/2000/svg"><g id="009---Lipstick" fill="none"><g id="Layer_3" transform="translate(1)"><path id="Shape" d="m41 16.7v7.3c-1.0020863.0037046-1.8475606.7466972-1.98 1.74-.3527207-.2286394-.6931896-.4756463-1.02-.74-4.54-3.67-5.79-3.97-10.52-2.48-.9638621.3000035-1.9961379.3000035-2.96 0-4.73-1.49-5.99-1.2-10.52 2.48-.34.27-.69.53-1.06.77-2.5157979 1.5765483-5.34461167 2.5865952-8.29 2.96-1.20818918.1836286-2.42797253.2805429-3.65.29l-.37-.48c6.31-4.69 5.56-7.06 11.37-12.87 4.04-4.04 8.99-2.64 11.79-1.3 1.3948603.68005 3.0251397.68005 4.42 0 2.8-1.34 7.75-2.74 11.79 1.3.36.36.69.7 1 1.03z" fill="#ef314c"/><path id="Shape" d="m40 15.67c-2.0267185-2.101415-4.9660165-3.0569399-7.841-2.549 1.8457917.3069722 3.5434319 1.2008546 4.841 2.549.36.36.69.7 1 1.03v7.3c-.3319484.0016777-.6580731.087337-.948.249.3.234.614.481.948.751.3268104.2643537.6672793.5113606 1.02.74.1324394-.9933028.9779137-1.7362954 1.98-1.74v-7.3c-.31-.33-.64-.67-1-1.03z" fill="#bb193b"/><path id="Shape" d="m39 33.85v5.15h-1c-.5522847 0-1 .4477153-1 1v5.21c-7.93 4.58-20.34 3.78-27-4.21l-10-12c.22-.16.43-.31.63-.46l.37.48c1.22202747-.0094571 2.44181082-.1063714 3.65-.29 6.17 6.3 17.09 7.99 26.26 7 2.7631604-.2948993 5.4799489-.926242 8.09-1.88z" fill="#ef314c"/><path id="Shape" d="m36 34.791v4.209h-1c-.5522847 0-1 .4477153-1 1v5.21c-2.9210044 1.629517-6.177556 2.5656301-9.518 2.736 4.3498187.322917 8.699543-.6277817 12.518-2.736v-5.21c0-.5522847.4477153-1 1-1h1v-5.15c-.980075.373975-1.981911.6882175-3 .941z" fill="#bb193b"/><path id="Shape" d="m55 40v15c0 2.209139-1.790861 4-4 4h-10c-2.209139 0-4-1.790861-4-4v-15c0-.5522847.4477153-1 1-1h16c.5522847 0 1 .4477153 1 1z" fill="#ffeb3a"/><path id="Shape" d="m54 39h-3c.5522847 0 1 .4477153 1 1v15c0 2.209139-1.790861 4-4 4h3c2.209139 0 4-1.790861 4-4v-15c0-.5522847-.4477153-1-1-1z" fill="#fec108"/><path id="Shape" d="m53 26v13h-14v-13c-.0019152-.0668257.0014284-.1336986.01-.2-.0015762-.0205148.0018556-.0411053.01-.06.1324394-.9933028.9779137-1.7362954 1.98-1.74h10c1.1032019.0032948 1.9967052.8967981 2 2z" fill="#ffeb3a"/><path id="Shape" d="m51 24h-3c1.1032019.0032948 1.9967052.8967981 2 2v13h3v-13c-.0032948-1.1032019-.8967981-1.9967052-2-2z" fill="#fdd834"/><path id="Shape" d="m39.02 25.74c-.0081444.0188947-.0115762.0394852-.01.06-5.12 3.01-21.07 2.96-26.07-.03.37-.24.72-.5 1.06-.77 4.53-3.68 5.79-3.97 10.52-2.48.9638621.3000035 1.9961379.3000035 2.96 0 4.73-1.49 5.98-1.19 10.52 2.48.3268104.2643537.6672793.5113606 1.02.74z" fill="#f5f5f5"/><path id="Shape" d="m38 25c-3.64-2.942-5.168-3.715-8.067-3.139 1.43.372 2.86 1.355 5.067 3.139.3268104.2643537.6672793.5113606 1.02.74-.0081444.0188947-.0115762.0394852-.01.06-2.3 1.351-6.781 2.084-11.474 2.213 5.692.155 11.687-.575 14.474-2.213-.0015762-.0205148.0018556-.0411053.01-.06-.3527207-.2286394-.6931896-.4756463-1.02-.74z" fill="#cfd8dc"/><path id="Shape" d="m39.01 25.8c-.0085716.0663014-.0119152.1331743-.01.2v7.85c-2.6100511.953758-5.3268396 1.5851007-8.09 1.88-9.17.99-20.09-.7-26.26-7 2.94538833-.3734048 5.7742021-1.3834517 8.29-2.96 5 2.99 20.95 3.04 26.07.03z" fill="#607d8b"/><path id="Shape" d="m36 26.959v6.891c-2.6100511.953758-5.3268396 1.5851007-8.09 1.88-1.084.117-2.194.193-3.317.232 2.1084972.0684347 4.219203-.0090837 6.317-.232 2.7631604-.2948993 5.4799489-.926242 8.09-1.88v-7.85c-.0019152-.0668257.0014284-.1336986.01-.2-.9475575.5179744-1.959752.9077198-3.01 1.159z" fill="#37474f"/><path id="Shape" d="m51 7.2v16.8h-10.0000003l.0000003-16.8c-.000224-.41572369.1291042-.82118521.37-1.16l3-4.2c.3751677-.52766577.9825573-.84107809 1.63-.84107809s1.2548323.31341232 1.63.84107809c3.22 4.51 3.37 4.51 3.37 5.36z" fill="#ef314c"/><path id="Shape" d="m47.63 1.84c-.3557834-.49720956-.9201893-.80349778-1.5309698-.83081704-.6107806-.02731925-1.2002775.2273567-1.5990302.69081704.042.049.091.088.13.142 3.22 4.508 3.37 4.508 3.37 5.358v16.8h3v-16.8c0-.85-.15-.85-3.37-5.36z" fill="#bb193b"/></g><g id="Layer_2" fill="#000"><path id="Shape" d="m10.231 41.64c6.608 7.929 18.535 9.095 26.769 5.216v8.144c.0033061 2.7600532 2.2399468 4.9966939 5 5h10c2.7600532-.0033061 4.9966939-2.2399468 5-5v-15c0-1.1045695-.8954305-2-2-2v-12c-.0052514-1.2667854-.8056491-2.3937454-2-2.816v-15.984c.0005609-.6242389-.194204-1.23301025-.557-1.741l-3-4.2c-.5629546-.78985998-1.4730532-1.25880759-2.443-1.25880759s-1.8800454.46894761-2.443 1.25880759l-3 4.2c-.362978.50789845-.5577621 1.11672981-.557 1.741v7.123c-4.376-3.7-9.483-2.167-12.227-.852-1.1202562.5479301-2.4307438.5479301-3.551 0-2.888-1.384-8.41-3.026-12.929 1.495-6.07 6.067-5.056 8.351-11.874 13.22-.22651653.1615116-.37551285.4100841-.41118684.6859882-.03567399.2759042.04519927.5541984.22318684.7680118zm1.538-1.28-8.652-10.381c.629-.032 1.365-.093 2.179-.2 8.009 7.684 22.968 8.739 33.7 5.468v2.753c-1.1045695 0-2 .8954305-2 2v4.6c-7.491 4.023-18.985 3.251-25.227-4.24zm2.183-13.446c5.326 2.653 18.864 2.774 25.048.449v5.783c-11.924 3.879-24.568 1.391-31.175-3.82 2.16007156-.4649261 4.229668-1.2796587 6.127-2.412zm1.932-1.341c4.057-3.273 5.013-3.46 9.338-2.1 1.1592486.3585053 2.3997514.3585053 3.559 0 4.31-1.358 5.266-1.172 9.335 2.1-5.356 1.983-16.878 1.979-22.232 0zm39.116 29.427c0 1.6568542-1.3431458 3-3 3h-10c-1.6568542 0-3-1.3431458-3-3v-15h2v6c0 .5522847.4477153 1 1 1s1-.4477153 1-1v-6h12zm-14-17v-12c0-.5522847.4477153-1 1-1h10c.5522847 0 1 .4477153 1 1v12zm2.184-31.379 3-4.2c.1954536-.25243878.4967392-.40020256.816-.40020256s.6205464.14776378.816.40020256c3.309 4.632 3.184 4.342 3.184 4.779v15.8h-8c0-17.149-.08-16 .184-16.379zm-29.477 9.756c3.468-3.466 7.706-2.515 10.647-1.107 1.6684586.8150028 3.6195414.8150028 5.288 0 2.945-1.41 7.184-2.362 10.651 1.1.255.255.48.491.707.729v6.078c-.5539007.1973144-1.0376058.5530516-1.391 1.023-4.774-3.861-6.383-4.231-11.426-2.642-.7697684.2374688-1.5932316.2374688-2.363 0-5.065-1.6-6.671-1.224-11.451 2.658-2.8 2.275-6.725 3.366-10.348 3.687 4.579-3.903 4.618-6.458 9.686-11.526z"/><path id="Shape" d="m21.447 39.1c-.2373497-.1186659-.5121326-.1381283-.7638386-.0541012-.251706.084027-.4596935.2646527-.5781614.5021012l-1 2c-.2468713.4942948-.0462948 1.0951287.448 1.342.4942949.2468712 1.0951287.0462948 1.342-.448l1-2c.1186659-.2373497.1381283-.5121326.0541012-.7638386-.084027-.251706-.2646527-.4596935-.5021012-.5781614z"/><path id="Shape" d="m33.9 39.553c-.1596977-.3197527-.4778505-.5300187-.8346134-.5515928-.3567628-.0215741-.6979349.1488214-.895.447-.1970651.2981787-.2200843.6788401-.0603866.9985928l1 2c.2468713.4942949.8477051.6948713 1.342.448s.6948713-.8477051.448-1.342z"/><path id="Shape" d="m25 40c-.5522847 0-1 .4477153-1 1v2c0 .5522847.4477153 1 1 1s1-.4477153 1-1v-2c0-.5522847-.4477153-1-1-1z"/><path id="Shape" d="m29 40c-.5522847 0-1 .4477153-1 1v2c0 .5522847.4477153 1 1 1s1-.4477153 1-1v-2c0-.5522847-.4477153-1-1-1z"/></g></g></svg>