<?xml version="1.0" encoding="iso-8859-1"?>
<!-- Generator: Adobe Illustrator 21.0.0, SVG Export Plug-In . SVG Version: 6.00 Build 0)  -->
<svg version="1.1" id="Capa_1" xmlns="http://www.w3.org/2000/svg" xmlns:xlink="http://www.w3.org/1999/xlink" x="0px" y="0px"
	 viewBox="0 0 609.677 609.677" style="enable-background:new 0 0 609.677 609.677;" xml:space="preserve">
<g>
	<g>
		<g id="filled_outline_8_">
			<path style="fill:#FFB782;" d="M563.555,177.63l-106.297-106.5v426.774h142.258V264.102
				C599.516,231.637,586.571,200.513,563.555,177.63z"/>
			<path style="fill:#DE4C3C;" d="M93.24,420.139L12.885,211.528c-8.068-20.942,2.368-44.466,23.32-52.534l379.29-146.099
				c20.942-8.068,44.466,2.368,52.534,23.32l80.355,208.611c8.068,20.942-2.368,44.466-23.32,52.534l-379.28,146.099
				C124.831,451.527,101.318,441.081,93.24,420.139z"/>
			<polygon style="fill:#7A4930;" points="496.989,111.368 42.21,287.646 72.491,366.254 527.29,190.057 			"/>
			<path style="fill:#4398D1;" d="M10.161,274.355V50.806c0-22.446,18.199-40.645,40.645-40.645h406.452
				c22.446,0,40.645,18.199,40.645,40.645v223.548c0,22.446-18.199,40.645-40.645,40.645H50.806
				C28.36,315,10.161,296.801,10.161,274.355z"/>
			<path style="fill:#3E8CC7;" d="M457.258,10.161h-43.185L109.234,315h348.024c22.446,0,40.645-18.199,40.645-40.645V50.806
				C497.903,28.36,479.704,10.161,457.258,10.161z"/>
			<rect x="50.806" y="172.742" style="fill:#5EB3D1;" width="40.645" height="20.323"/>
			<rect x="50.806" y="233.71" style="fill:#5EB3D1;" width="40.645" height="20.323"/>
			<rect x="233.71" y="233.71" style="fill:#5EB3D1;" width="40.645" height="20.323"/>
			<rect x="111.774" y="172.742" style="fill:#5EB3D1;" width="40.645" height="20.323"/>
			<rect x="172.742" y="172.742" style="fill:#5EB3D1;" width="40.645" height="20.323"/>
			<rect x="233.71" y="172.742" style="fill:#5EB3D1;" width="40.645" height="20.323"/>
			<rect x="426.774" y="50.806" style="fill:#5EB3D1;" width="20.323" height="30.484"/>
			<rect x="386.129" y="50.806" style="fill:#5EB3D1;" width="20.323" height="30.484"/>
			<rect x="345.484" y="50.806" style="fill:#5EB3D1;" width="20.323" height="30.484"/>
			<rect x="304.839" y="50.806" style="fill:#5EB3D1;" width="20.323" height="30.484"/>
			<rect x="416.613" y="497.903" style="fill:#88B337;" width="182.903" height="101.613"/>
			<path style="fill:#FFB782;" d="M386.789,193.725c-17.234-17.173-45.126-17.122-62.299,0.112
				c-16.604,16.665-17.183,43.44-1.311,60.805l83.272,90.842c-25.027,43.805-23.96,97.823,2.774,140.602l7.387,11.818H548.71
				V355.645L386.789,193.725z"/>
			<rect x="447.097" y="528.387" style="fill:#6B962A;" width="20.323" height="20.323"/>
			<path style="fill:#FDB62F;" d="M50.806,115.839V67.065c0-8.983,7.275-16.258,16.258-16.258h48.774
				c8.983,0,16.258,7.275,16.258,16.258v48.774c0,8.983-7.275,16.258-16.258,16.258H67.065
				C58.082,132.097,50.806,124.821,50.806,115.839z"/>
			<rect x="50.806" y="81.29" style="fill:#FD7B2F;" width="30.484" height="20.323"/>
			<rect x="101.613" y="81.29" style="fill:#FD7B2F;" width="30.484" height="20.323"/>
			<path style="fill:#F2A46F;" d="M538.548,355.645c-2.693,0-5.284-1.067-7.184-2.977l-40.645-40.645
				c-3.902-4.034-3.79-10.466,0.254-14.368c3.943-3.8,10.182-3.8,14.114,0l40.645,40.645c3.963,3.973,3.963,10.405,0,14.368
				C543.822,354.578,541.241,355.645,538.548,355.645z"/>
			<path d="M508.065,107.649V50.806C508.034,22.761,485.303,0.03,457.258,0H50.806C22.761,0.03,0.03,22.761,0,50.806v223.548
				c0.081,25.952,19.743,47.646,45.563,50.278l38.196,99.154c10.09,26.186,39.487,39.233,65.672,29.143l238.526-91.878
				c-16.482,43.053-11.797,91.34,12.661,130.42l5.833,9.338v98.707c0,5.609,4.552,10.161,10.161,10.161h182.903
				c5.609,0,10.161-4.552,10.161-10.161V264.102c-0.091-35.138-14.084-68.802-38.928-93.657L508.065,107.649z M508.065,168.413
				l30.84,80.061c6.046,15.709-1.788,33.349-17.498,39.395l-17.63,6.808c2.815-6.402,4.278-13.321,4.288-20.323V168.413z
				 M20.323,274.355V50.806c0-16.837,13.647-30.484,30.484-30.484h406.452c16.837,0,30.484,13.647,30.484,30.484v64.585h-0.091
				l0.091,0.234v158.73c-0.081,1.768-0.305,3.536-0.691,5.264l-93.077-93.088c-21.42-20.922-55.735-20.526-76.657,0.894
				c-19.957,20.424-20.648,52.818-1.585,74.076l39.68,43.338H50.806C33.969,304.839,20.323,291.192,20.323,274.355L20.323,274.355z
				 M150.499,325.161l-72.257,27.822l-10.69-27.822H150.499z M142.126,433.968c-15.709,6.056-33.349-1.778-39.405-17.488l0,0
				l-17.142-44.578l121.295-46.742V325.1h167.163l13.21,14.399L142.126,433.968z M589.355,589.355H426.774v-81.29h162.581V589.355z
				 M589.355,487.742H422.252l-4.41-7.042c-24.773-39.588-25.759-89.602-2.571-130.136c2.195-3.841,1.656-8.647-1.331-11.909
				l-83.272-90.842c-12.62-13.819-11.655-35.25,2.164-47.88c13.362-12.204,33.959-11.757,46.772,1.016l161.92,161.88l14.368-14.368
				l-37.597-37.597l10.426-4.065c26.165-10.09,39.202-39.466,29.132-65.642l-34.396-89.308l32.923,32.984
				c21.034,21.024,32.892,49.526,32.973,79.268L589.355,487.742L589.355,487.742z"/>
			<path d="M115.839,142.258c14.592,0,26.419-11.828,26.419-26.419l0,0V67.065c0-14.592-11.828-26.419-26.419-26.419l0,0H67.065
				c-14.592,0-26.419,11.828-26.419,26.419l0,0v48.774c0,14.592,11.828,26.419,26.419,26.419l0,0H115.839z M60.968,115.839v-14.226
				H81.29V81.29H60.968V67.065c0-3.363,2.733-6.097,6.097-6.097l0,0h48.774c3.363,0,6.097,2.733,6.097,6.097l0,0V81.29h-20.323
				v20.323h20.323v14.226c0,3.363-2.733,6.097-6.097,6.097l0,0H67.065C63.701,121.935,60.968,119.202,60.968,115.839L60.968,115.839
				z"/>
			<rect x="50.806" y="172.742" width="40.645" height="20.323"/>
			<rect x="50.806" y="233.71" width="40.645" height="20.323"/>
			<rect x="233.71" y="233.71" width="40.645" height="20.323"/>
			<rect x="111.774" y="172.742" width="40.645" height="20.323"/>
			<rect x="172.742" y="172.742" width="40.645" height="20.323"/>
			<rect x="233.71" y="172.742" width="40.645" height="20.323"/>
			<rect x="426.774" y="50.806" width="20.323" height="30.484"/>
			<rect x="386.129" y="50.806" width="20.323" height="30.484"/>
			<rect x="345.484" y="50.806" width="20.323" height="30.484"/>
			<rect x="304.839" y="50.806" width="20.323" height="30.484"/>
			<rect x="447.097" y="528.387" width="20.323" height="20.323"/>
		</g>
	</g>
</g>
<g>
</g>
<g>
</g>
<g>
</g>
<g>
</g>
<g>
</g>
<g>
</g>
<g>
</g>
<g>
</g>
<g>
</g>
<g>
</g>
<g>
</g>
<g>
</g>
<g>
</g>
<g>
</g>
<g>
</g>
</svg>
