<!DOCTYPE svg PUBLIC "-//W3C//DTD SVG 20010904//EN" "http://www.w3.org/TR/2001/REC-SVG-20010904/DTD/svg10.dtd">
<svg version="1.0" xmlns="http://www.w3.org/2000/svg" width="1600px" height="960px" viewBox="0 0 16000 9600" preserveAspectRatio="xMidYMid meet">
<g id="layer101" fill="#ffffff" stroke="none">
 <path d="M3414 7905 c-295 -53 -461 -188 -518 -420 -9 -33 -20 -116 -26 -184 -18 -196 -31 -211 -225 -252 -106 -22 -125 -31 -125 -59 0 -32 38 -53 136 -71 112 -21 170 -50 198 -99 19 -31 21 -55 24 -210 5 -233 4 -235 -100 -291 -69 -37 -84 -49 -92 -76 -18 -67 -62 -63 748 -62 539 0 740 3 766 12 34 12 35 14 41 72 4 33 10 150 14 260 8 215 8 215 -42 227 -37 9 -59 -18 -98 -117 -64 -166 -118 -225 -244 -265 -57 -18 -94 -20 -352 -23 -263 -2 -290 0 -306 15 -15 16 -18 46 -23 235 -5 196 -8 222 -27 258 -25 48 -53 75 -110 107 l-43 24 34 17 c50 23 104 75 127 120 13 24 24 75 30 136 20 204 29 257 54 308 59 119 194 183 390 183 147 0 266 -42 356 -127 62 -58 83 -93 134 -218 39 -95 43 -101 79 -113 69 -22 70 -19 63 231 -4 143 -11 228 -19 245 -7 15 -33 37 -58 49 -58 29 -202 70 -309 88 -103 18 -377 18 -477 0z"/>
 <path d="M7245 7904 c-213 -29 -373 -90 -498 -189 -75 -59 -166 -183 -206 -279 -91 -219 -100 -544 -21 -747 58 -146 125 -246 235 -347 80 -73 188 -131 315 -168 87 -26 109 -28 260 -29 179 0 215 8 352 76 32 16 59 29 62 29 2 0 3 -132 1 -292 -4 -374 2 -502 26 -531 16 -21 26 -22 148 -22 112 0 133 3 148 18 17 17 18 80 25 1110 3 601 9 1147 13 1214 9 142 3 159 -52 148 -18 -3 -62 -20 -99 -37 -37 -17 -88 -33 -113 -36 -45 -4 -71 1 -261 51 -92 24 -267 40 -335 31z m264 -180 c127 -28 195 -92 226 -209 21 -81 21 -760 1 -877 -25 -140 -95 -237 -213 -295 -75 -37 -78 -38 -192 -37 -104 0 -123 3 -185 28 -220 92 -330 350 -313 735 16 361 144 581 382 657 56 18 213 17 294 -2z"/>
 <path d="M9160 7904 c-138 -27 -271 -81 -367 -150 -224 -160 -328 -370 -340 -684 -8 -211 34 -377 136 -532 141 -216 316 -335 569 -387 79 -16 290 -14 380 5 192 39 288 90 422 224 75 74 105 113 137 175 77 153 103 265 103 461 0 132 -10 205 -42 304 -43 133 -109 241 -212 348 -99 103 -199 162 -352 208 -77 23 -111 27 -249 29 -88 2 -171 1 -185 -1z m275 -169 c144 -30 259 -115 327 -241 101 -187 116 -520 36 -799 -55 -193 -191 -343 -347 -385 -60 -16 -174 -14 -246 5 -193 51 -305 173 -366 400 -32 118 -33 398 -2 537 53 235 142 374 286 447 97 49 197 60 312 36z"/>
 <path d="M13265 7865 c-123 -54 -165 -56 -298 -16 -137 43 -235 54 -400 48 -103 -3 -162 -11 -216 -26 -388 -113 -591 -407 -591 -856 0 -259 88 -475 264 -651 77 -76 107 -98 186 -137 126 -62 191 -78 336 -84 204 -9 339 31 452 132 l52 47 0 -47 c0 -36 5 -51 26 -72 25 -25 27 -25 149 -21 78 2 128 8 138 16 13 11 16 103 21 690 4 372 9 748 12 835 4 115 2 162 -7 173 -15 18 -8 20 -124 -31z m-420 -152 c70 -23 108 -50 143 -103 55 -81 57 -100 57 -520 0 -425 -2 -439 -67 -562 -83 -157 -279 -251 -458 -220 -275 47 -418 321 -397 762 22 463 242 707 602 667 39 -4 93 -15 120 -24z"/>
 <path d="M5177 7890 c-256 -46 -433 -192 -503 -414 -49 -155 -54 -231 -55 -765 0 -438 2 -496 16 -510 13 -13 41 -16 150 -16 116 0 137 2 152 18 17 16 18 57 24 560 7 574 8 590 58 725 27 71 83 147 136 184 61 42 184 71 273 63 118 -10 200 -40 249 -91 78 -81 77 -66 83 -779 4 -481 8 -635 18 -652 7 -13 26 -25 48 -29 48 -9 252 0 264 12 5 5 12 307 15 704 4 382 11 758 15 834 7 101 6 143 -2 153 -15 18 -52 10 -153 -35 -85 -37 -143 -44 -200 -22 -120 46 -212 62 -375 65 -91 2 -187 0 -213 -5z"/>
 <path d="M10623 7853 c-49 -10 -48 11 -56 -777 -4 -408 -8 -770 -10 -806 -2 -61 -1 -65 21 -68 12 -2 64 16 115 40 85 40 98 43 172 42 83 0 87 -2 335 -90 96 -34 116 -37 240 -42 206 -7 238 15 225 148 -23 237 -56 263 -215 170 -112 -66 -174 -84 -266 -77 -138 10 -210 75 -245 217 -10 41 -15 202 -19 632 -5 536 -6 579 -23 595 -15 15 -37 18 -135 20 -64 0 -127 -1 -139 -4z"/>
 <path d="M3231 7206 c-8 -9 -11 -79 -9 -232 3 -257 1 -253 103 -174 37 28 82 57 101 65 49 20 167 41 314 56 127 12 153 22 163 59 9 35 -23 49 -159 64 -267 32 -342 56 -454 148 -40 32 -43 33 -59 14z"/>
 <path d="M8050 4316 c-134 -21 -236 -53 -355 -111 -181 -88 -301 -204 -390 -376 -65 -125 -94 -247 -105 -439 -12 -199 -17 -227 -49 -291 -47 -95 -153 -154 -321 -179 -106 -16 -174 -36 -193 -58 -27 -30 -5 -40 152 -67 216 -38 300 -74 355 -153 58 -85 60 -95 64 -396 2 -154 1 -303 -3 -332 -11 -94 -59 -137 -203 -187 -55 -19 -122 -70 -122 -93 0 -7 13 -20 30 -29 25 -13 163 -15 1132 -15 1075 0 1104 1 1135 20 17 10 37 29 44 41 7 13 15 100 20 213 4 105 11 268 15 363 l7 172 -32 31 c-17 18 -37 30 -44 28 -22 -8 -56 -83 -83 -184 -45 -171 -86 -249 -177 -337 -63 -60 -147 -99 -262 -123 -80 -17 -139 -19 -537 -19 l-447 0 -23 23 c-23 22 -23 25 -28 375 -5 337 -7 354 -28 409 -42 105 -150 198 -276 238 l-39 13 60 22 c201 76 293 224 293 472 0 102 26 287 51 363 64 199 186 319 382 379 110 33 279 47 405 33 134 -15 208 -35 298 -78 182 -89 286 -237 355 -504 18 -69 37 -131 42 -137 13 -18 58 -16 86 4 l24 16 -7 266 c-9 351 -16 404 -52 443 -56 60 -244 131 -447 169 -143 27 -589 36 -727 15z"/>
 <path d="M7672 3208 c-9 -9 -12 -104 -12 -365 0 -323 1 -354 17 -360 12 -5 26 5 47 33 66 85 152 161 219 193 84 40 153 54 390 81 198 22 237 31 237 54 0 33 -47 53 -137 61 -238 18 -410 53 -505 101 -59 30 -134 97 -184 166 -37 49 -51 57 -72 36z"/>
 </g>

</svg>